M48
; DRILL file {KiCad (5.1.6-0-10_14)} date Wednesday, September 02, 2020 at 07:49:50 PM
; FORMAT={-:-/ absolute / inch / decimal}
; #@! TF.CreationDate,2020-09-02T19:49:50+02:00
; #@! TF.GenerationSoftware,Kicad,Pcbnew,(5.1.6-0-10_14)
; #@! TF.FileFunction,Plated,1,2,PTH
FMAT,2
INCH
T1C0.0295
T2C0.0315
T3C0.0354
T4C0.0394
T5C0.0433
T6C0.0472
T7C0.0551
T8C0.1102
%
G90
G05
T1
X1.55Y-4.025
X1.6Y-4.025
X1.65Y-4.025
T2
X1.575Y-4.975
X1.575Y-5.075
X1.575Y-5.175
X1.575Y-5.275
X1.875Y-4.975
X1.875Y-5.075
X1.875Y-5.175
X1.875Y-5.275
X3.025Y-4.975
X3.025Y-5.075
X3.025Y-5.175
X3.025Y-5.275
X3.325Y-4.975
X3.325Y-5.075
X3.325Y-5.175
X3.325Y-5.275
X2.15Y-3.6
X2.15Y-3.7
X2.15Y-3.8
X2.15Y-3.9
X2.15Y-4.0
X2.15Y-4.1
X2.15Y-4.2
X2.15Y-4.3
X2.45Y-3.6
X2.45Y-3.7
X2.45Y-3.8
X2.45Y-3.9
X2.45Y-4.0
X2.45Y-4.1
X2.45Y-4.2
X2.45Y-4.3
T3
X1.625Y-5.955
X1.725Y-5.955
X2.875Y-5.955
X2.975Y-5.955
T4
X3.075Y-4.15
X3.275Y-4.15
X2.05Y-4.675
X2.35Y-4.675
X2.575Y-3.85
X2.875Y-3.85
X2.625Y-3.65
X2.825Y-3.65
X3.0Y-3.65
X3.3Y-3.65
X1.575Y-4.275
X1.575Y-4.375
X3.0Y-3.55
X3.3Y-3.55
X2.45Y-4.45
X2.45Y-4.65
X2.575Y-5.35
X2.875Y-5.35
X1.575Y-6.155
X1.875Y-6.155
X1.45Y-4.775
X1.45Y-5.075
X2.575Y-5.05
X2.875Y-5.05
X3.0Y-3.75
X3.3Y-3.75
X2.575Y-4.05
X2.775Y-4.05
X2.025Y-3.975
X2.025Y-4.175
X1.55Y-5.4
X1.85Y-5.4
X3.025Y-3.85
X3.325Y-3.85
X1.925Y-3.6
X1.925Y-3.8
X1.325Y-4.025
X1.325Y-4.125
X2.575Y-4.65
X2.875Y-4.65
X2.575Y-3.55
X2.875Y-3.55
X2.125Y-4.45
X2.325Y-4.45
X2.025Y-4.925
X2.325Y-4.925
X3.075Y-4.275
X3.075Y-4.375
X2.525Y-5.15
X2.825Y-5.15
X2.575Y-4.75
X2.875Y-4.75
X3.025Y-4.05
X3.325Y-4.05
X1.825Y-3.575
X1.825Y-3.875
X2.025Y-5.175
X2.325Y-5.175
X3.075Y-4.75
X3.275Y-4.75
X1.25Y-5.3
X1.35Y-5.2
X1.35Y-5.4
X1.775Y-4.275
X1.775Y-4.375
X2.075Y-5.3
X2.275Y-5.3
X1.85Y-4.025
X1.85Y-4.125
X3.075Y-5.425
X3.275Y-5.425
X2.025Y-4.8
X2.325Y-4.8
X2.725Y-6.155
X3.025Y-6.155
X1.925Y-4.325
X2.025Y-4.325
X2.575Y-4.15
X2.875Y-4.15
X1.55Y-5.5
X1.85Y-5.5
X1.325Y-4.3
X1.325Y-4.4
X2.125Y-4.575
X2.325Y-4.575
X2.575Y-5.25
X2.875Y-5.25
X2.575Y-3.75
X2.875Y-3.75
X3.025Y-3.95
X3.325Y-3.95
X2.025Y-3.575
X2.025Y-3.875
X1.6Y-3.6
X1.6Y-3.7
X2.625Y-4.275
X2.625Y-4.375
X2.85Y-4.275
X2.85Y-4.375
X2.575Y-4.85
X2.875Y-4.85
X1.325Y-3.575
X1.325Y-3.675
X2.725Y-3.95
X2.925Y-3.95
X2.575Y-4.95
X2.875Y-4.95
X3.025Y-4.65
X3.325Y-4.65
X3.025Y-4.85
X3.325Y-4.85
X1.6Y-4.7
X1.9Y-4.7
T5
X1.525Y-6.355
X1.925Y-6.355
T6
X2.375Y-5.73
X1.725Y-5.73
X2.225Y-5.45
X1.525Y-5.73
X1.925Y-3.375
X1.975Y-5.73
X2.625Y-5.73
X2.675Y-3.375
X2.5Y-5.45
X2.375Y-5.45
X2.1Y-5.45
X1.85Y-5.73
X1.975Y-5.45
X2.225Y-5.73
X2.1Y-5.73
X2.5Y-5.73
T7
X2.65Y-4.5
X2.85Y-4.5
X3.05Y-4.5
X2.85Y-3.425
X3.05Y-3.425
X3.25Y-3.425
X1.55Y-4.5
X1.75Y-4.5
X1.95Y-4.5
X2.1Y-3.425
X2.3Y-3.425
X2.5Y-3.425
X1.35Y-3.425
X1.55Y-3.425
X1.75Y-3.425
T8
X2.1Y-5.955
X2.1Y-6.155
X2.1Y-6.355
X2.3Y-5.955
X2.3Y-6.155
X2.3Y-6.355
X2.5Y-5.955
X2.5Y-6.155
X2.5Y-6.355
T0
M30
