G04 #@! TF.GenerationSoftware,KiCad,Pcbnew,(5.1.6-0-10_14)*
G04 #@! TF.CreationDate,2020-09-02T19:49:47+02:00*
G04 #@! TF.ProjectId,mag-echo,6d61672d-6563-4686-9f2e-6b696361645f,rev?*
G04 #@! TF.SameCoordinates,Original*
G04 #@! TF.FileFunction,Soldermask,Bot*
G04 #@! TF.FilePolarity,Negative*
%FSLAX46Y46*%
G04 Gerber Fmt 4.6, Leading zero omitted, Abs format (unit mm)*
G04 Created by KiCad (PCBNEW (5.1.6-0-10_14)) date 2020-09-02 19:49:47*
%MOMM*%
%LPD*%
G01*
G04 APERTURE LIST*
%ADD10C,1.900000*%
%ADD11R,1.900000X1.900000*%
%ADD12C,0.600000*%
%ADD13O,2.030400X2.030400*%
%ADD14R,2.030400X2.030400*%
%ADD15R,1.150000X1.600000*%
%ADD16O,1.150000X1.600000*%
%ADD17O,1.700000X1.700000*%
%ADD18R,1.700000X1.700000*%
%ADD19R,3.916000X3.916000*%
%ADD20O,3.916000X3.916000*%
%ADD21O,2.640000X2.640000*%
%ADD22R,2.640000X2.640000*%
%ADD23O,2.100000X2.100000*%
%ADD24O,2.132000X2.132000*%
%ADD25O,2.300000X2.300000*%
%ADD26R,2.300000X2.300000*%
%ADD27R,2.100000X2.100000*%
%ADD28O,1.608000X1.608000*%
%ADD29R,1.608000X1.608000*%
G04 APERTURE END LIST*
D10*
X41275000Y-151257000D03*
D11*
X43815000Y-151257000D03*
D10*
X73025000Y-151257000D03*
D11*
X75565000Y-151257000D03*
D12*
X52439000Y-143371000D03*
X50939000Y-143371000D03*
X50939000Y-141871000D03*
X52439000Y-141871000D03*
X51689000Y-143371000D03*
X51689000Y-141871000D03*
X65901000Y-143371000D03*
X64401000Y-143371000D03*
X64401000Y-141871000D03*
X65901000Y-141871000D03*
X65151000Y-143371000D03*
X65151000Y-141871000D03*
D13*
X33655000Y-109220000D03*
D14*
X33655000Y-111760000D03*
D13*
X46990000Y-104775000D03*
D14*
X46990000Y-102235000D03*
D13*
X33655000Y-104775000D03*
D14*
X33655000Y-102235000D03*
D13*
X40640000Y-91440000D03*
D14*
X40640000Y-93980000D03*
D15*
X41910000Y-102235000D03*
D16*
X39370000Y-102235000D03*
X40640000Y-102235000D03*
D17*
X76835000Y-133985000D03*
X84455000Y-126365000D03*
X76835000Y-131445000D03*
X84455000Y-128905000D03*
X76835000Y-128905000D03*
X84455000Y-131445000D03*
X76835000Y-126365000D03*
D18*
X84455000Y-133985000D03*
D17*
X62230000Y-91440000D03*
X54610000Y-109220000D03*
X62230000Y-93980000D03*
X54610000Y-106680000D03*
X62230000Y-96520000D03*
X54610000Y-104140000D03*
X62230000Y-99060000D03*
X54610000Y-101600000D03*
X62230000Y-101600000D03*
X54610000Y-99060000D03*
X62230000Y-104140000D03*
X54610000Y-96520000D03*
X62230000Y-106680000D03*
X54610000Y-93980000D03*
X62230000Y-109220000D03*
D18*
X54610000Y-91440000D03*
D17*
X40005000Y-133985000D03*
X47625000Y-126365000D03*
X40005000Y-131445000D03*
X47625000Y-128905000D03*
X40005000Y-128905000D03*
X47625000Y-131445000D03*
X40005000Y-126365000D03*
D18*
X47625000Y-133985000D03*
D19*
X53340000Y-151257000D03*
D20*
X53340000Y-156337000D03*
X53340000Y-161417000D03*
X58420000Y-151257000D03*
X58420000Y-156337000D03*
X58420000Y-161417000D03*
X63500000Y-151257000D03*
X63500000Y-156337000D03*
X63500000Y-161417000D03*
D21*
X67310000Y-114300000D03*
X72390000Y-114300000D03*
D22*
X77470000Y-114300000D03*
D21*
X72390000Y-86995000D03*
X77470000Y-86995000D03*
D22*
X82550000Y-86995000D03*
D21*
X39370000Y-114300000D03*
X44450000Y-114300000D03*
D22*
X49530000Y-114300000D03*
D21*
X53340000Y-86995000D03*
X58420000Y-86995000D03*
D22*
X63500000Y-86995000D03*
D21*
X34290000Y-86995000D03*
X39370000Y-86995000D03*
D22*
X44450000Y-86995000D03*
D13*
X34290000Y-132080000D03*
X31750000Y-134620000D03*
X34290000Y-137160000D03*
D23*
X59055000Y-121920000D03*
X51435000Y-121920000D03*
X51435000Y-125095000D03*
X59055000Y-125095000D03*
X83820000Y-90170000D03*
X76200000Y-90170000D03*
X65405000Y-90170000D03*
X73025000Y-90170000D03*
X84455000Y-123190000D03*
X76835000Y-123190000D03*
X65405000Y-133350000D03*
X73025000Y-133350000D03*
X76835000Y-156337000D03*
X69215000Y-156337000D03*
X73025000Y-135890000D03*
X65405000Y-135890000D03*
X65405000Y-125730000D03*
X73025000Y-125730000D03*
X71755000Y-130810000D03*
X64135000Y-130810000D03*
X47625000Y-156337000D03*
X40005000Y-156337000D03*
X84455000Y-118110000D03*
X76835000Y-118110000D03*
X65405000Y-97790000D03*
X73025000Y-97790000D03*
X84455000Y-100330000D03*
X76835000Y-100330000D03*
X76835000Y-102870000D03*
X84455000Y-102870000D03*
X73025000Y-128270000D03*
X65405000Y-128270000D03*
X73025000Y-95250000D03*
X65405000Y-95250000D03*
X84455000Y-97790000D03*
X76835000Y-97790000D03*
X51435000Y-98425000D03*
X51435000Y-90805000D03*
X46355000Y-90805000D03*
X46355000Y-98425000D03*
X52070000Y-118745000D03*
X59690000Y-118745000D03*
X65405000Y-105410000D03*
X73025000Y-105410000D03*
X73025000Y-120650000D03*
X65405000Y-120650000D03*
X36830000Y-128905000D03*
X36830000Y-121285000D03*
X65405000Y-118110000D03*
X73025000Y-118110000D03*
X73025000Y-123190000D03*
X65405000Y-123190000D03*
X39370000Y-139700000D03*
X46990000Y-139700000D03*
X59055000Y-131445000D03*
X51435000Y-131445000D03*
X46990000Y-137160000D03*
X39370000Y-137160000D03*
X40640000Y-119380000D03*
X48260000Y-119380000D03*
D24*
X48895000Y-85725000D03*
X60325000Y-138430000D03*
X56515000Y-145542000D03*
X43815000Y-145542000D03*
X66675000Y-145542000D03*
X50165000Y-138430000D03*
X63500000Y-145542000D03*
X60325000Y-145542000D03*
X38735000Y-145542000D03*
X50165000Y-145542000D03*
X46990000Y-145542000D03*
X53340000Y-145542000D03*
X56515000Y-138430000D03*
X67945000Y-85725000D03*
X63500000Y-138430000D03*
X53340000Y-138430000D03*
D25*
X38735000Y-161417000D03*
D26*
X48895000Y-161417000D03*
D27*
X83820000Y-95250000D03*
D23*
X76200000Y-95250000D03*
D27*
X76200000Y-92710000D03*
D23*
X83820000Y-92710000D03*
X83185000Y-120650000D03*
X78105000Y-120650000D03*
D28*
X78105000Y-111125000D03*
D29*
X78105000Y-108585000D03*
D23*
X48895000Y-91440000D03*
X48895000Y-96520000D03*
X62230000Y-113030000D03*
X62230000Y-118110000D03*
X59055000Y-113030000D03*
X53975000Y-113030000D03*
X70485000Y-102870000D03*
X65405000Y-102870000D03*
D28*
X40005000Y-108585000D03*
D29*
X40005000Y-111125000D03*
D23*
X78105000Y-105410000D03*
X83185000Y-105410000D03*
X78105000Y-137795000D03*
X83185000Y-137795000D03*
X66675000Y-92710000D03*
X71755000Y-92710000D03*
X74295000Y-100330000D03*
X69215000Y-100330000D03*
D28*
X66675000Y-111125000D03*
D29*
X66675000Y-108585000D03*
D23*
X59055000Y-116205000D03*
X53975000Y-116205000D03*
D28*
X45085000Y-108585000D03*
D29*
X45085000Y-111125000D03*
D23*
X51435000Y-106045000D03*
X51435000Y-100965000D03*
D28*
X33655000Y-90805000D03*
D29*
X33655000Y-93345000D03*
D28*
X72390000Y-108585000D03*
D29*
X72390000Y-111125000D03*
D28*
X51435000Y-109855000D03*
D29*
X48895000Y-109855000D03*
D23*
X52705000Y-134620000D03*
X57785000Y-134620000D03*
M02*
