G04 #@! TF.GenerationSoftware,KiCad,Pcbnew,(5.1.6-0-10_14)*
G04 #@! TF.CreationDate,2020-09-02T19:49:47+02:00*
G04 #@! TF.ProjectId,mag-echo,6d61672d-6563-4686-9f2e-6b696361645f,rev?*
G04 #@! TF.SameCoordinates,Original*
G04 #@! TF.FileFunction,Soldermask,Top*
G04 #@! TF.FilePolarity,Negative*
%FSLAX46Y46*%
G04 Gerber Fmt 4.6, Leading zero omitted, Abs format (unit mm)*
G04 Created by KiCad (PCBNEW (5.1.6-0-10_14)) date 2020-09-02 19:49:47*
%MOMM*%
%LPD*%
G01*
G04 APERTURE LIST*
%ADD10C,0.150000*%
%ADD11C,1.900000*%
%ADD12R,1.900000X1.900000*%
%ADD13C,0.600000*%
%ADD14O,2.030400X2.030400*%
%ADD15R,2.030400X2.030400*%
%ADD16R,1.150000X1.600000*%
%ADD17O,1.150000X1.600000*%
%ADD18O,1.700000X1.700000*%
%ADD19R,1.700000X1.700000*%
%ADD20R,3.916000X3.916000*%
%ADD21O,3.916000X3.916000*%
%ADD22O,2.640000X2.640000*%
%ADD23R,2.640000X2.640000*%
%ADD24O,2.100000X2.100000*%
%ADD25O,2.132000X2.132000*%
%ADD26O,2.300000X2.300000*%
%ADD27R,2.300000X2.300000*%
%ADD28R,2.100000X2.100000*%
%ADD29O,1.608000X1.608000*%
%ADD30R,1.608000X1.608000*%
G04 APERTURE END LIST*
D10*
X70104523Y-145518190D02*
X70056904Y-145470571D01*
X69961666Y-145422952D01*
X69866428Y-145422952D01*
X69771190Y-145470571D01*
X69723571Y-145518190D01*
X69675952Y-145613428D01*
X69675952Y-145708666D01*
X69723571Y-145803904D01*
X69771190Y-145851523D01*
X69866428Y-145899142D01*
X69961666Y-145899142D01*
X70056904Y-145851523D01*
X70104523Y-145803904D01*
X70104523Y-145422952D02*
X70104523Y-145803904D01*
X70152142Y-145851523D01*
X70199761Y-145851523D01*
X70295000Y-145803904D01*
X70342619Y-145708666D01*
X70342619Y-145470571D01*
X70247380Y-145327714D01*
X70104523Y-145232476D01*
X69914047Y-145184857D01*
X69723571Y-145232476D01*
X69580714Y-145327714D01*
X69485476Y-145470571D01*
X69437857Y-145661047D01*
X69485476Y-145851523D01*
X69580714Y-145994380D01*
X69723571Y-146089619D01*
X69914047Y-146137238D01*
X70104523Y-146089619D01*
X70247380Y-145994380D01*
X70771190Y-145994380D02*
X70771190Y-144994380D01*
X70771190Y-145375333D02*
X70866428Y-145327714D01*
X71056904Y-145327714D01*
X71152142Y-145375333D01*
X71199761Y-145422952D01*
X71247380Y-145518190D01*
X71247380Y-145803904D01*
X71199761Y-145899142D01*
X71152142Y-145946761D01*
X71056904Y-145994380D01*
X70866428Y-145994380D01*
X70771190Y-145946761D01*
X71818809Y-145994380D02*
X71723571Y-145946761D01*
X71675952Y-145899142D01*
X71628333Y-145803904D01*
X71628333Y-145518190D01*
X71675952Y-145422952D01*
X71723571Y-145375333D01*
X71818809Y-145327714D01*
X71961666Y-145327714D01*
X72056904Y-145375333D01*
X72104523Y-145422952D01*
X72152142Y-145518190D01*
X72152142Y-145803904D01*
X72104523Y-145899142D01*
X72056904Y-145946761D01*
X71961666Y-145994380D01*
X71818809Y-145994380D01*
X72580714Y-145994380D02*
X72580714Y-144994380D01*
X72580714Y-145375333D02*
X72675952Y-145327714D01*
X72866428Y-145327714D01*
X72961666Y-145375333D01*
X73009285Y-145422952D01*
X73056904Y-145518190D01*
X73056904Y-145803904D01*
X73009285Y-145899142D01*
X72961666Y-145946761D01*
X72866428Y-145994380D01*
X72675952Y-145994380D01*
X72580714Y-145946761D01*
X73485476Y-145994380D02*
X73485476Y-145327714D01*
X73485476Y-145518190D02*
X73533095Y-145422952D01*
X73580714Y-145375333D01*
X73675952Y-145327714D01*
X73771190Y-145327714D01*
X74247380Y-145994380D02*
X74152142Y-145946761D01*
X74104523Y-145899142D01*
X74056904Y-145803904D01*
X74056904Y-145518190D01*
X74104523Y-145422952D01*
X74152142Y-145375333D01*
X74247380Y-145327714D01*
X74390238Y-145327714D01*
X74485476Y-145375333D01*
X74533095Y-145422952D01*
X74580714Y-145518190D01*
X74580714Y-145803904D01*
X74533095Y-145899142D01*
X74485476Y-145946761D01*
X74390238Y-145994380D01*
X74247380Y-145994380D01*
X74914047Y-145327714D02*
X75152142Y-145994380D01*
X75390238Y-145327714D01*
X76295000Y-145994380D02*
X75723571Y-145994380D01*
X76009285Y-145994380D02*
X76009285Y-144994380D01*
X75914047Y-145137238D01*
X75818809Y-145232476D01*
X75723571Y-145280095D01*
X76771190Y-145994380D02*
X76961666Y-145994380D01*
X77056904Y-145946761D01*
X77104523Y-145899142D01*
X77199761Y-145756285D01*
X77247380Y-145565809D01*
X77247380Y-145184857D01*
X77199761Y-145089619D01*
X77152142Y-145042000D01*
X77056904Y-144994380D01*
X76866428Y-144994380D01*
X76771190Y-145042000D01*
X76723571Y-145089619D01*
X76675952Y-145184857D01*
X76675952Y-145422952D01*
X76723571Y-145518190D01*
X76771190Y-145565809D01*
X76866428Y-145613428D01*
X77056904Y-145613428D01*
X77152142Y-145565809D01*
X77199761Y-145518190D01*
X77247380Y-145422952D01*
X77818809Y-145422952D02*
X77723571Y-145375333D01*
X77675952Y-145327714D01*
X77628333Y-145232476D01*
X77628333Y-145184857D01*
X77675952Y-145089619D01*
X77723571Y-145042000D01*
X77818809Y-144994380D01*
X78009285Y-144994380D01*
X78104523Y-145042000D01*
X78152142Y-145089619D01*
X78199761Y-145184857D01*
X78199761Y-145232476D01*
X78152142Y-145327714D01*
X78104523Y-145375333D01*
X78009285Y-145422952D01*
X77818809Y-145422952D01*
X77723571Y-145470571D01*
X77675952Y-145518190D01*
X77628333Y-145613428D01*
X77628333Y-145803904D01*
X77675952Y-145899142D01*
X77723571Y-145946761D01*
X77818809Y-145994380D01*
X78009285Y-145994380D01*
X78104523Y-145946761D01*
X78152142Y-145899142D01*
X78199761Y-145803904D01*
X78199761Y-145613428D01*
X78152142Y-145518190D01*
X78104523Y-145470571D01*
X78009285Y-145422952D01*
X78675952Y-145994380D02*
X78866428Y-145994380D01*
X78961666Y-145946761D01*
X79009285Y-145899142D01*
X79104523Y-145756285D01*
X79152142Y-145565809D01*
X79152142Y-145184857D01*
X79104523Y-145089619D01*
X79056904Y-145042000D01*
X78961666Y-144994380D01*
X78771190Y-144994380D01*
X78675952Y-145042000D01*
X78628333Y-145089619D01*
X78580714Y-145184857D01*
X78580714Y-145422952D01*
X78628333Y-145518190D01*
X78675952Y-145565809D01*
X78771190Y-145613428D01*
X78961666Y-145613428D01*
X79056904Y-145565809D01*
X79104523Y-145518190D01*
X79152142Y-145422952D01*
X33585476Y-129350952D02*
X32335476Y-129350952D01*
X33228333Y-128934285D01*
X32335476Y-128517619D01*
X33585476Y-128517619D01*
X33585476Y-127386666D02*
X32930714Y-127386666D01*
X32811666Y-127446190D01*
X32752142Y-127565238D01*
X32752142Y-127803333D01*
X32811666Y-127922380D01*
X33525952Y-127386666D02*
X33585476Y-127505714D01*
X33585476Y-127803333D01*
X33525952Y-127922380D01*
X33406904Y-127981904D01*
X33287857Y-127981904D01*
X33168809Y-127922380D01*
X33109285Y-127803333D01*
X33109285Y-127505714D01*
X33049761Y-127386666D01*
X32752142Y-126255714D02*
X33764047Y-126255714D01*
X33883095Y-126315238D01*
X33942619Y-126374761D01*
X34002142Y-126493809D01*
X34002142Y-126672380D01*
X33942619Y-126791428D01*
X33525952Y-126255714D02*
X33585476Y-126374761D01*
X33585476Y-126612857D01*
X33525952Y-126731904D01*
X33466428Y-126791428D01*
X33347380Y-126850952D01*
X32990238Y-126850952D01*
X32871190Y-126791428D01*
X32811666Y-126731904D01*
X32752142Y-126612857D01*
X32752142Y-126374761D01*
X32811666Y-126255714D01*
X32930714Y-124708095D02*
X32930714Y-124291428D01*
X33585476Y-124112857D02*
X33585476Y-124708095D01*
X32335476Y-124708095D01*
X32335476Y-124112857D01*
X33525952Y-123041428D02*
X33585476Y-123160476D01*
X33585476Y-123398571D01*
X33525952Y-123517619D01*
X33466428Y-123577142D01*
X33347380Y-123636666D01*
X32990238Y-123636666D01*
X32871190Y-123577142D01*
X32811666Y-123517619D01*
X32752142Y-123398571D01*
X32752142Y-123160476D01*
X32811666Y-123041428D01*
X33585476Y-122505714D02*
X32335476Y-122505714D01*
X33585476Y-121970000D02*
X32930714Y-121970000D01*
X32811666Y-122029523D01*
X32752142Y-122148571D01*
X32752142Y-122327142D01*
X32811666Y-122446190D01*
X32871190Y-122505714D01*
X33585476Y-121196190D02*
X33525952Y-121315238D01*
X33466428Y-121374761D01*
X33347380Y-121434285D01*
X32990238Y-121434285D01*
X32871190Y-121374761D01*
X32811666Y-121315238D01*
X32752142Y-121196190D01*
X32752142Y-121017619D01*
X32811666Y-120898571D01*
X32871190Y-120839047D01*
X32990238Y-120779523D01*
X33347380Y-120779523D01*
X33466428Y-120839047D01*
X33525952Y-120898571D01*
X33585476Y-121017619D01*
X33585476Y-121196190D01*
D11*
X41275000Y-151257000D03*
D12*
X43815000Y-151257000D03*
D11*
X73025000Y-151257000D03*
D12*
X75565000Y-151257000D03*
D13*
X52439000Y-143371000D03*
X50939000Y-143371000D03*
X50939000Y-141871000D03*
X52439000Y-141871000D03*
X51689000Y-143371000D03*
X51689000Y-141871000D03*
X65901000Y-143371000D03*
X64401000Y-143371000D03*
X64401000Y-141871000D03*
X65901000Y-141871000D03*
X65151000Y-143371000D03*
X65151000Y-141871000D03*
D14*
X33655000Y-109220000D03*
D15*
X33655000Y-111760000D03*
D14*
X46990000Y-104775000D03*
D15*
X46990000Y-102235000D03*
D14*
X33655000Y-104775000D03*
D15*
X33655000Y-102235000D03*
D14*
X40640000Y-91440000D03*
D15*
X40640000Y-93980000D03*
D16*
X41910000Y-102235000D03*
D17*
X39370000Y-102235000D03*
X40640000Y-102235000D03*
D18*
X76835000Y-133985000D03*
X84455000Y-126365000D03*
X76835000Y-131445000D03*
X84455000Y-128905000D03*
X76835000Y-128905000D03*
X84455000Y-131445000D03*
X76835000Y-126365000D03*
D19*
X84455000Y-133985000D03*
D18*
X62230000Y-91440000D03*
X54610000Y-109220000D03*
X62230000Y-93980000D03*
X54610000Y-106680000D03*
X62230000Y-96520000D03*
X54610000Y-104140000D03*
X62230000Y-99060000D03*
X54610000Y-101600000D03*
X62230000Y-101600000D03*
X54610000Y-99060000D03*
X62230000Y-104140000D03*
X54610000Y-96520000D03*
X62230000Y-106680000D03*
X54610000Y-93980000D03*
X62230000Y-109220000D03*
D19*
X54610000Y-91440000D03*
D18*
X40005000Y-133985000D03*
X47625000Y-126365000D03*
X40005000Y-131445000D03*
X47625000Y-128905000D03*
X40005000Y-128905000D03*
X47625000Y-131445000D03*
X40005000Y-126365000D03*
D19*
X47625000Y-133985000D03*
D20*
X53340000Y-151257000D03*
D21*
X53340000Y-156337000D03*
X53340000Y-161417000D03*
X58420000Y-151257000D03*
X58420000Y-156337000D03*
X58420000Y-161417000D03*
X63500000Y-151257000D03*
X63500000Y-156337000D03*
X63500000Y-161417000D03*
D22*
X67310000Y-114300000D03*
X72390000Y-114300000D03*
D23*
X77470000Y-114300000D03*
D22*
X72390000Y-86995000D03*
X77470000Y-86995000D03*
D23*
X82550000Y-86995000D03*
D22*
X39370000Y-114300000D03*
X44450000Y-114300000D03*
D23*
X49530000Y-114300000D03*
D22*
X53340000Y-86995000D03*
X58420000Y-86995000D03*
D23*
X63500000Y-86995000D03*
D22*
X34290000Y-86995000D03*
X39370000Y-86995000D03*
D23*
X44450000Y-86995000D03*
D14*
X34290000Y-132080000D03*
X31750000Y-134620000D03*
X34290000Y-137160000D03*
D24*
X59055000Y-121920000D03*
X51435000Y-121920000D03*
X51435000Y-125095000D03*
X59055000Y-125095000D03*
X83820000Y-90170000D03*
X76200000Y-90170000D03*
X65405000Y-90170000D03*
X73025000Y-90170000D03*
X84455000Y-123190000D03*
X76835000Y-123190000D03*
X65405000Y-133350000D03*
X73025000Y-133350000D03*
X76835000Y-156337000D03*
X69215000Y-156337000D03*
X73025000Y-135890000D03*
X65405000Y-135890000D03*
X65405000Y-125730000D03*
X73025000Y-125730000D03*
X71755000Y-130810000D03*
X64135000Y-130810000D03*
X47625000Y-156337000D03*
X40005000Y-156337000D03*
X84455000Y-118110000D03*
X76835000Y-118110000D03*
X65405000Y-97790000D03*
X73025000Y-97790000D03*
X84455000Y-100330000D03*
X76835000Y-100330000D03*
X76835000Y-102870000D03*
X84455000Y-102870000D03*
X73025000Y-128270000D03*
X65405000Y-128270000D03*
X73025000Y-95250000D03*
X65405000Y-95250000D03*
X84455000Y-97790000D03*
X76835000Y-97790000D03*
X51435000Y-98425000D03*
X51435000Y-90805000D03*
X46355000Y-90805000D03*
X46355000Y-98425000D03*
X52070000Y-118745000D03*
X59690000Y-118745000D03*
X65405000Y-105410000D03*
X73025000Y-105410000D03*
X73025000Y-120650000D03*
X65405000Y-120650000D03*
X36830000Y-128905000D03*
X36830000Y-121285000D03*
X65405000Y-118110000D03*
X73025000Y-118110000D03*
X73025000Y-123190000D03*
X65405000Y-123190000D03*
X39370000Y-139700000D03*
X46990000Y-139700000D03*
X59055000Y-131445000D03*
X51435000Y-131445000D03*
X46990000Y-137160000D03*
X39370000Y-137160000D03*
X40640000Y-119380000D03*
X48260000Y-119380000D03*
D25*
X48895000Y-85725000D03*
X60325000Y-138430000D03*
X56515000Y-145542000D03*
X43815000Y-145542000D03*
X66675000Y-145542000D03*
X50165000Y-138430000D03*
X63500000Y-145542000D03*
X60325000Y-145542000D03*
X38735000Y-145542000D03*
X50165000Y-145542000D03*
X46990000Y-145542000D03*
X53340000Y-145542000D03*
X56515000Y-138430000D03*
X67945000Y-85725000D03*
X63500000Y-138430000D03*
X53340000Y-138430000D03*
D26*
X38735000Y-161417000D03*
D27*
X48895000Y-161417000D03*
D28*
X83820000Y-95250000D03*
D24*
X76200000Y-95250000D03*
D28*
X76200000Y-92710000D03*
D24*
X83820000Y-92710000D03*
X83185000Y-120650000D03*
X78105000Y-120650000D03*
D29*
X78105000Y-111125000D03*
D30*
X78105000Y-108585000D03*
D24*
X48895000Y-91440000D03*
X48895000Y-96520000D03*
X62230000Y-113030000D03*
X62230000Y-118110000D03*
X59055000Y-113030000D03*
X53975000Y-113030000D03*
X70485000Y-102870000D03*
X65405000Y-102870000D03*
D29*
X40005000Y-108585000D03*
D30*
X40005000Y-111125000D03*
D24*
X78105000Y-105410000D03*
X83185000Y-105410000D03*
X78105000Y-137795000D03*
X83185000Y-137795000D03*
X66675000Y-92710000D03*
X71755000Y-92710000D03*
X74295000Y-100330000D03*
X69215000Y-100330000D03*
D29*
X66675000Y-111125000D03*
D30*
X66675000Y-108585000D03*
D24*
X59055000Y-116205000D03*
X53975000Y-116205000D03*
D29*
X45085000Y-108585000D03*
D30*
X45085000Y-111125000D03*
D24*
X51435000Y-106045000D03*
X51435000Y-100965000D03*
D29*
X33655000Y-90805000D03*
D30*
X33655000Y-93345000D03*
D29*
X72390000Y-108585000D03*
D30*
X72390000Y-111125000D03*
D29*
X51435000Y-109855000D03*
D30*
X48895000Y-109855000D03*
D24*
X52705000Y-134620000D03*
X57785000Y-134620000D03*
M02*
